<svg width="64" height="64" viewBox="0 0 64 64" fill="none" xmlns="http://www.w3.org/2000/svg">
<rect width="64" height="64" fill="#0C0C0C"/>
<path d="M20.6027 19V46H17V19H20.6027Z" fill="white"/>
<path d="M34.2738 46H24.9428V19H34.2738C37.9965 19 41.2149 20.3224 43.929 22.9673C46.643 25.5878 48 28.7592 48 32.4816C48 36.2286 46.643 39.4245 43.929 42.0694C41.2149 44.6898 37.9965 46 34.2738 46ZM28.5455 42.8041H34.2738C37.0839 42.8041 39.4736 41.7388 41.4431 39.6082C43.4126 37.4776 44.3973 35.102 44.3973 32.4816C44.3973 29.5918 43.3405 27.1551 41.2269 25.1714C39.1374 23.1878 36.8197 22.1959 34.2738 22.1959H28.5455V42.8041Z" fill="white"/>
</svg>
