<svg width="86" height="18" viewBox="0 0 86 18" fill="none" xmlns="http://www.w3.org/2000/svg">
<path d="M2.22714 1.09924V17.9313H0V1.09924H2.22714Z" fill="white"/>
<path d="M10.6784 17.9313H4.91015V1.09924H10.6784C12.9798 1.09924 14.9694 1.92366 16.6472 3.57252C18.325 5.20611 19.1639 7.18321 19.1639 9.50382C19.1639 11.8397 18.325 13.8321 16.6472 15.4809C14.9694 17.1145 12.9798 17.9313 10.6784 17.9313ZM7.13729 15.9389H10.6784C12.4156 15.9389 13.893 15.2748 15.1105 13.9466C16.328 12.6183 16.9367 11.1374 16.9367 9.50382C16.9367 7.70229 16.2834 6.18321 14.9768 4.94656C13.6851 3.70992 12.2523 3.0916 10.6784 3.0916H7.13729V15.9389Z" fill="white"/>
<path d="M27.4695 15.7786C28.9988 15.7786 30.2015 15.2443 31.0775 14.1756L32.436 15.9389C32.3173 16.0916 32.1614 16.2519 31.9683 16.4198C31.7753 16.5878 31.4784 16.8092 31.0775 17.084C30.6766 17.3588 30.1569 17.5802 29.5185 17.7481C28.8949 17.916 28.2119 18 27.4695 18C25.7324 18 24.255 17.374 23.0375 16.1221C21.82 14.8702 21.2113 13.3282 21.2113 11.4962C21.2113 9.70992 21.8126 8.19084 23.0152 6.93893C24.2179 5.67176 25.6878 5.03817 27.425 5.03817C29.1028 5.03817 30.5281 5.66412 31.7011 6.91603C32.8741 8.15267 33.4605 9.67939 33.4605 11.4962C33.4605 11.8321 33.4457 12.1069 33.416 12.3206H23.5052C23.7131 13.313 24.1808 14.1374 24.9083 14.7939C25.6507 15.4504 26.5044 15.7786 27.4695 15.7786ZM27.425 7.32824C26.5044 7.32824 25.6878 7.59542 24.9751 8.12977C24.2773 8.66412 23.817 9.35114 23.5943 10.1908H31.0329C30.8993 9.41221 30.4836 8.74046 29.7857 8.17557C29.1028 7.61069 28.3158 7.32824 27.425 7.32824Z" fill="white"/>
<path d="M37.6683 0V17.9313H35.4411V0.458016L37.6683 0Z" fill="white"/>
<path d="M45.6955 15.7786C47.2248 15.7786 48.4275 15.2443 49.3035 14.1756L50.6621 15.9389C50.5433 16.0916 50.3874 16.2519 50.1944 16.4198C50.0013 16.5878 49.7044 16.8092 49.3035 17.084C48.9026 17.3588 48.3829 17.5802 47.7445 17.7481C47.1209 17.916 46.4379 18 45.6955 18C43.9584 18 42.481 17.374 41.2635 16.1221C40.046 14.8702 39.4373 13.3282 39.4373 11.4962C39.4373 9.70992 40.0386 8.19084 41.2413 6.93893C42.4439 5.67176 43.9138 5.03817 45.651 5.03817C47.3288 5.03817 48.7541 5.66412 49.9271 6.91603C51.1001 8.15267 51.6865 9.67939 51.6865 11.4962C51.6865 11.8321 51.6717 12.1069 51.642 12.3206H41.7312C41.9391 13.313 42.4068 14.1374 43.1343 14.7939C43.8767 15.4504 44.7304 15.7786 45.6955 15.7786ZM45.651 7.32824C44.7304 7.32824 43.9138 7.59542 43.2011 8.12977C42.5033 8.66412 42.043 9.35114 41.8203 10.1908H49.259C49.1253 9.41221 48.7096 8.74046 48.0118 8.17557C47.3288 7.61069 46.5419 7.32824 45.651 7.32824Z" fill="white"/>
<path d="M60.1533 17.771L58.5721 18C56.1964 18 55.0086 16.6031 55.0086 13.8092V7.16794H53.2269V5.10687H55.0086L55.4541 1.83206H57.2358V5.10687H60.1533V7.16794H57.2358V13.8092C57.2358 14.4656 57.362 14.9695 57.6144 15.3206C57.8668 15.6565 58.186 15.8244 58.5721 15.8244H60.1533V17.771Z" fill="white"/>
<path d="M68.1844 15.7786C69.7137 15.7786 70.9164 15.2443 71.7924 14.1756L73.151 15.9389C73.0322 16.0916 72.8763 16.2519 72.6833 16.4198C72.4902 16.5878 72.1933 16.8092 71.7924 17.084C71.3915 17.3588 70.8719 17.5802 70.2334 17.7481C69.6098 17.916 68.9268 18 68.1844 18C66.4473 18 64.9699 17.374 63.7524 16.1221C62.5349 14.8702 61.9262 13.3282 61.9262 11.4962C61.9262 9.70992 62.5275 8.19084 63.7302 6.93893C64.9328 5.67176 66.4027 5.03817 68.1399 5.03817C69.8177 5.03817 71.243 5.66412 72.416 6.91603C73.589 8.15267 74.1755 9.67939 74.1755 11.4962C74.1755 11.8321 74.1606 12.1069 74.1309 12.3206H64.2201C64.428 13.313 64.8957 14.1374 65.6232 14.7939C66.3656 15.4504 67.2193 15.7786 68.1844 15.7786ZM68.1399 7.32824C67.2193 7.32824 66.4027 7.59542 65.69 8.12977C64.9922 8.66412 64.5319 9.35114 64.3092 10.1908H71.7479C71.6142 9.41221 71.1985 8.74046 70.5007 8.17557C69.8177 7.61069 69.0308 7.32824 68.1399 7.32824Z" fill="white"/>
<path d="M78.3832 17.9313H76.156V5.10687H77.9378L78.2718 6.98473C79.8308 5.68702 81.2785 5.03817 82.6147 5.03817C84.0104 5.03817 85.1388 5.29771 86 5.81679V8.74809H84.1515L83.9956 7.46565C83.7283 7.26718 83.268 7.16794 82.6147 7.16794C81.8872 7.16794 81.1968 7.34351 80.5435 7.69466C79.9051 8.03053 79.185 8.54962 78.3832 9.25191V17.9313Z" fill="white"/>
</svg>
